<svg id="Layer_1" data-name="Layer 1" xmlns="http://www.w3.org/2000/svg" viewBox="0 0 42.55 43.24"><defs><style>.cls-1{fill:#e8491d;stroke:#000;}.cls-1,.cls-2{stroke-miterlimit:10;}.cls-2{stroke:#f15a24;}</style></defs><title>Graphics Quest Logo</title><path class="cls-1" d="M331.63,130.63a18.82,18.82,0,0,1,1,9,21.85,21.85,0,0,1-3.91,8.54,9,9,0,0,0,.84,1.34,5.07,5.07,0,0,0,1.9,1.81,2.17,2.17,0,0,0,1.52.16,1.66,1.66,0,0,0,1-.87L335,149q.65.44,2.25,1.49-1.09,5-5.29,6.41-3,1-8.78-5.12a6.26,6.26,0,0,1-1.8.68l-1.86.5q-4.93,1.6-10.72-2.32a18.89,18.89,0,0,1-7.75-10.1q-2.62-8.23,1.65-14.67a16.68,16.68,0,0,1,9.05-6.93,14.36,14.36,0,0,1,12,1.1Q329.23,123.24,331.63,130.63Zm-6.72,25.15a22.29,22.29,0,0,1-2.52.47,20.46,20.46,0,0,1-5.56,0c-1.87-.27-3.7-1.4-5.7-2.79a29,29,0,0,0,4,1.38,13.81,13.81,0,0,0,6.55-.36,6,6,0,0,0,1.07-.45Q323.28,154.49,324.91,155.78Zm-1.33-22.13q-2.3-7.08-5-9.49-2.55-2.25-6.34-1a5.7,5.7,0,0,0-4.11,4.74q-.64,3.62,1.52,10.28,2.09,6.44,5.12,9.09,2.79,2.53,5.74,1.36l-.18-.55a16.63,16.63,0,0,0-1.37-1,2.33,2.33,0,0,0-1.72,0l-.68.22-.12-.37a4.82,4.82,0,0,1,3.35-3.06,5.13,5.13,0,0,1,4.58.89l.37-.12Q326.05,141.28,323.58,133.65ZM318,126l-.48-.25a10.73,10.73,0,0,0-2.63.45,2.83,2.83,0,0,0-2,2,11.5,11.5,0,0,0,.33,4.81l.79,3.68q1.54,5.51,3,6.58a6.78,6.78,0,0,0-1.4,1,4.23,4.23,0,0,0-.4,1.09,22.73,22.73,0,0,1-1.62-2.35,32.82,32.82,0,0,1-1.85-4.75q-3.89-12,1.76-14Q315.68,123.5,318,126Zm23.13,26.45a7.79,7.79,0,0,1-.45,2.67,7.66,7.66,0,0,1-4.54,4.35,3.74,3.74,0,0,1-3.16-.24l-1.66-.77a9.06,9.06,0,0,0,2.28-.13,7.25,7.25,0,0,0,3.76-2.71,7.41,7.41,0,0,0,1.38-4.46ZM336,130.77a20.65,20.65,0,0,1,1,10.12,21,21,0,0,1-4.59,9.16q-.39-.28-1.15-.89a4,4,0,0,1-.75-1.07q.4-.79,1.84-3a19.29,19.29,0,0,0,2.25-7.22,20.79,20.79,0,0,0-1.22-7.8,20,20,0,0,0-2.64-5.48,34.9,34.9,0,0,0-5.17-5.36l1,.3a12.08,12.08,0,0,1,6.15,4.16A24.82,24.82,0,0,1,336,130.77Z" transform="translate(-299.54 -117.02)"/><path class="cls-2" d="M336.52,140h-2.26q-4.13,0-4.13,5.23,0,.1.38,5.28l-2.59.72-2.26-2.59a17,17,0,0,1-9.74,3.36q-8.11,0-12.43-6.14a17.54,17.54,0,0,1-3.31-10.32q0-8.11,4.58-13.06a15.52,15.52,0,0,1,11.93-4.94,19.94,19.94,0,0,1,9.7,2.64l1.15-1.87,3.36,1.87V128l-3.74,1.87a9.41,9.41,0,0,0-3.22-5.18A9,9,0,0,0,317.8,122q-9,0-9,13.49,0,6.14,2.3,9.41a6.47,6.47,0,0,0,5.57,2.93q6,0,6-4.51,0-3.5-4-3.5H317l1.92-3.6h15.74ZM326.87,154a14.46,14.46,0,0,1-9.79,3.31,12.69,12.69,0,0,1-5.9-1.25,20.47,20.47,0,0,1-4.32-3.31q-2.55-2.4-2.64-3.07a16.17,16.17,0,0,0,5.23,3.31,19.33,19.33,0,0,0,7.49,1.58,11.79,11.79,0,0,0,4.42-.86,31.8,31.8,0,0,0,3.84-2ZM323,126.49a14.9,14.9,0,0,0-4-.77,5.75,5.75,0,0,0-3.07,1.15q-1.1.72-1.82,3.36a26.64,26.64,0,0,0-.82,7.15,37.26,37.26,0,0,0,.19,4.66,9,9,0,0,0,1.63,4.13q-4.51-2.4-4.51-10.7,0-11.57,7.3-11.57A6.07,6.07,0,0,1,323,126.49Zm-2.35,18.38a1.88,1.88,0,0,0-2.21-.49l-1.63-2.87a5.73,5.73,0,0,1,1.2-.15,2.44,2.44,0,0,1,2.74,2.77A2.68,2.68,0,0,1,320.68,144.88ZM335,131l-5.23,2.26-1.87-1.87,4.46-2.26v-7.87L335,123Zm6.34,12.34h-4.08a3.73,3.73,0,0,0-2.47.6,2.54,2.54,0,0,0-.65,1.94q0,.53.11,1.58l.76,6.62-4.94,1.15-1.84-2.18,4.15-1q-.27-2.84-.39-6.06-.24-4.61,3.41-4.62h3.65L337,137l2.5,1.54Z" transform="translate(-299.54 -117.02)"/></svg>