<svg xmlns="http://www.w3.org/2000/svg" viewBox="0 0 42.55 43.24"><defs><style>.cls-1{fill:#e8491d;stroke:#000;}.cls-1,.cls-2{stroke-miterlimit:10;}.cls-2{stroke:#f15a24;}</style></defs><title>Asset 1</title><g id="Layer_2" data-name="Layer 2"><g id="Layer_1-2" data-name="Layer 1"><path class="cls-1" d="M32.09,13.62a18.82,18.82,0,0,1,1,9,21.85,21.85,0,0,1-3.91,8.54A9,9,0,0,0,30,32.47a5.07,5.07,0,0,0,1.9,1.81,2.17,2.17,0,0,0,1.52.16,1.66,1.66,0,0,0,1-.87L35.44,32q.65.44,2.25,1.49-1.09,5-5.29,6.41-3,1-8.78-5.12a6.26,6.26,0,0,1-1.8.68L20,36Q15,37.57,9.25,33.65A18.89,18.89,0,0,1,1.5,23.55Q-1.13,15.32,3.14,8.89A16.68,16.68,0,0,1,12.2,2a14.36,14.36,0,0,1,12,1.1Q29.68,6.22,32.09,13.62ZM25.37,38.76a22.29,22.29,0,0,1-2.52.47,20.46,20.46,0,0,1-5.56,0c-1.87-.27-3.7-1.4-5.7-2.79a29,29,0,0,0,4,1.38,13.81,13.81,0,0,0,6.55-.36A6,6,0,0,0,23.18,37Q23.74,37.47,25.37,38.76ZM24,16.64q-2.3-7.08-5-9.49-2.55-2.25-6.34-1a5.7,5.7,0,0,0-4.11,4.74Q8,14.48,10.15,21.14q2.09,6.44,5.12,9.09,2.79,2.53,5.74,1.36L20.84,31a16.63,16.63,0,0,0-1.37-1,2.33,2.33,0,0,0-1.72,0l-.68.22-.12-.37a4.82,4.82,0,0,1,3.35-3.06,5.13,5.13,0,0,1,4.58.89l.37-.12Q26.51,24.26,24,16.64ZM18.43,9l-.48-.25a10.73,10.73,0,0,0-2.63.45,2.83,2.83,0,0,0-2,2,11.5,11.5,0,0,0,.33,4.81l.79,3.68q1.54,5.51,3,6.58a6.78,6.78,0,0,0-1.4,1,4.23,4.23,0,0,0-.4,1.09A22.73,22.73,0,0,1,14,26a32.82,32.82,0,0,1-1.85-4.75q-3.89-12,1.76-14Q16.14,6.48,18.43,9ZM41.56,35.47a7.79,7.79,0,0,1-.45,2.67,7.66,7.66,0,0,1-4.54,4.35,3.74,3.74,0,0,1-3.16-.24l-1.66-.77A9.06,9.06,0,0,0,34,41.35a7.25,7.25,0,0,0,3.76-2.71,7.41,7.41,0,0,0,1.38-4.46ZM36.47,13.75a20.65,20.65,0,0,1,1,10.12A21,21,0,0,1,32.89,33q-.39-.28-1.15-.89A4,4,0,0,1,31,31.08q.4-.79,1.84-3a19.29,19.29,0,0,0,2.25-7.22A20.79,20.79,0,0,0,33.87,13a20,20,0,0,0-2.64-5.48A34.9,34.9,0,0,0,26.06,2.2l1,.3a12.08,12.08,0,0,1,6.15,4.16A24.82,24.82,0,0,1,36.47,13.75Z"/><path class="cls-2" d="M37,23H34.72q-4.13,0-4.13,5.23,0,.1.38,5.28l-2.59.72L26.12,31.6A17,17,0,0,1,16.38,35Q8.27,35,3.95,28.82A17.54,17.54,0,0,1,.64,18.5q0-8.11,4.58-13.06A15.52,15.52,0,0,1,17.15.5a19.94,19.94,0,0,1,9.7,2.64L28,1.27l3.36,1.87V11l-3.74,1.87A9.41,9.41,0,0,0,24.4,7.7,9,9,0,0,0,18.25,5q-9,0-9,13.49,0,6.14,2.3,9.41a6.47,6.47,0,0,0,5.57,2.93q6,0,6-4.51,0-3.5-4-3.5H17.44l1.92-3.6H35.1ZM27.32,37a14.46,14.46,0,0,1-9.79,3.31,12.69,12.69,0,0,1-5.9-1.25,20.47,20.47,0,0,1-4.32-3.31q-2.55-2.4-2.64-3.07A16.17,16.17,0,0,0,9.9,36a19.33,19.33,0,0,0,7.49,1.58,11.79,11.79,0,0,0,4.42-.86,31.8,31.8,0,0,0,3.84-2ZM23.48,9.48a14.9,14.9,0,0,0-4-.77,5.75,5.75,0,0,0-3.07,1.15q-1.1.72-1.82,3.36a26.64,26.64,0,0,0-.82,7.15A37.26,37.26,0,0,0,13.93,25a9,9,0,0,0,1.63,4.13q-4.51-2.4-4.51-10.7,0-11.57,7.3-11.57A6.07,6.07,0,0,1,23.48,9.48ZM21.13,27.86a1.88,1.88,0,0,0-2.21-.49L17.29,24.5a5.73,5.73,0,0,1,1.2-.15,2.44,2.44,0,0,1,2.74,2.77A2.68,2.68,0,0,1,21.13,27.86ZM35.48,14l-5.23,2.26-1.87-1.87,4.46-2.26V4.24L35.48,6Zm6.34,12.34H37.74a3.73,3.73,0,0,0-2.47.6,2.54,2.54,0,0,0-.65,1.94q0,.53.11,1.58l.76,6.62-4.94,1.15L28.7,36l4.15-1q-.27-2.84-.39-6.06-.24-4.61,3.41-4.62h3.65l-2.06-4.42,2.5,1.54Z"/></g></g></svg>